<?xml version="1.0" standalone="no"?>
<!DOCTYPE svg PUBLIC "-//W3C//DTD SVG 20010904//EN"
 "http://www.w3.org/TR/2001/REC-SVG-20010904/DTD/svg10.dtd">
<svg version="1.0" xmlns="http://www.w3.org/2000/svg"
 width="783.000000pt" height="440.000000pt" viewBox="0 0 783.000000 440.000000"
 preserveAspectRatio="xMidYMid meet">
<metadata>
Created by potrace 1.15, written by Peter Selinger 2001-2017
</metadata>
<g transform="translate(0.000000,440.000000) scale(0.100000,-0.100000)"
fill="#000000" stroke="none">
<path d="M3700 4309 c-1675 -15 -3192 -28 -3372 -28 l-328 -1 0 -2140 0 -2140
3915 0 3915 0 0 2170 0 2170 -542 -1 c-299 -1 -1913 -14 -3588 -30z m2158
-2782 c2 -120 0 -147 -11 -147 -8 0 -23 22 -35 49 -25 60 -83 126 -136 154
-32 17 -58 22 -116 22 -90 0 -138 -22 -197 -89 -51 -58 -74 -128 -80 -247 -15
-274 84 -429 273 -429 82 0 155 33 230 102 l64 60 0 -40 c0 -35 -6 -45 -47
-83 -118 -104 -282 -132 -464 -79 -200 59 -327 270 -289 480 52 290 327 451
624 365 111 -32 123 -32 144 5 9 16 22 28 27 27 6 -2 11 -64 13 -150z m-5018
-32 c0 -90 -3 -115 -13 -115 -8 0 -19 17 -25 38 -30 96 -74 131 -174 135 l-63
2 0 -350 c1 -192 4 -362 8 -376 7 -29 43 -49 88 -49 20 0 29 -4 27 -12 -4 -10
-61 -14 -231 -16 -198 -2 -227 0 -227 13 0 10 10 15 31 15 32 0 69 15 81 34 4
6 8 174 8 374 l0 362 -61 0 c-36 0 -75 -7 -95 -16 -37 -18 -78 -77 -89 -131
-4 -19 -13 -33 -21 -33 -11 0 -14 23 -14 120 l0 120 385 0 385 0 0 -115z
m6071 -356 c3 -112 7 -226 8 -252 1 -40 5 -50 21 -54 43 -11 16 -21 -72 -25
-94 -5 -142 3 -100 16 12 4 24 17 28 30 3 12 4 118 2 235 l-3 212 -25 19 -25
19 70 3 c39 2 75 3 80 3 6 -1 12 -82 16 -206z m629 -21 c0 -128 3 -243 6 -255
3 -12 15 -25 25 -28 46 -15 11 -25 -86 -25 -63 0 -105 4 -105 10 0 6 7 10 15
10 33 0 38 37 30 266 -7 207 -9 224 -26 229 -42 14 -14 25 61 25 l80 0 0 -232z
m-1430 122 c0 -55 3 -100 6 -100 3 0 17 9 31 20 16 12 41 20 65 20 89 0 108
-35 108 -205 0 -112 2 -127 20 -145 11 -11 20 -22 20 -25 0 -3 -43 -5 -95 -5
-87 0 -118 9 -80 24 13 5 15 28 13 148 l-3 143 -27 3 c-46 5 -58 -26 -58 -155
0 -100 2 -115 20 -133 11 -11 20 -22 20 -25 0 -3 -43 -5 -95 -5 -52 0 -95 3
-95 6 0 4 8 13 18 20 15 11 17 33 14 241 -2 212 -4 229 -22 244 -10 9 -16 19
-13 23 4 3 39 6 80 6 l73 0 0 -100z m-4822 -38 l3 -92 29 15 c68 35 153 7 192
-65 15 -28 18 -51 16 -112 -3 -66 -7 -82 -33 -120 -17 -24 -46 -51 -65 -60
-44 -22 -113 -23 -149 -2 -25 15 -30 15 -59 0 -17 -9 -36 -16 -42 -16 -7 0
-10 84 -10 255 0 244 -1 255 -20 265 -40 21 -21 31 58 28 l77 -3 3 -93z m5348
-33 c48 -23 84 -82 84 -137 l0 -32 -100 0 c-55 0 -100 -3 -100 -7 0 -29 25
-85 46 -107 37 -36 77 -34 116 4 38 38 48 31 23 -16 -30 -56 -70 -79 -137 -79
-69 0 -103 22 -135 85 -39 75 -27 195 25 254 20 22 89 55 116 56 11 0 39 -9
62 -21z m636 -8 l33 -29 3 -131 4 -131 24 0 c22 0 23 -2 14 -21 -15 -27 -73
-51 -105 -43 -14 3 -32 15 -40 26 -14 20 -14 20 -50 -2 -74 -46 -155 -22 -155
44 0 53 32 90 114 132 76 39 76 39 76 80 0 51 -27 80 -65 70 -26 -7 -34 -33
-14 -53 19 -19 6 -57 -23 -67 -42 -15 -78 6 -78 44 0 17 5 40 11 52 17 32 86
58 156 58 55 0 67 -3 95 -29z m-4123 -12 c24 -9 35 -9 44 0 21 21 27 10 27
-54 0 -63 -12 -85 -25 -45 -8 26 -62 70 -85 70 -22 0 -42 -31 -32 -46 4 -6 36
-31 71 -57 100 -72 117 -112 79 -187 -31 -60 -77 -79 -150 -60 -42 10 -52 10
-59 -1 -13 -22 -19 -6 -26 65 -7 75 4 85 35 32 40 -68 114 -89 120 -34 2 21
-5 32 -35 55 -20 15 -57 47 -80 69 -38 37 -43 46 -43 86 0 90 71 137 159 107z
m-1308 -30 c30 -21 54 -67 64 -121 l7 -38 -101 0 -101 0 0 -26 c0 -14 5 -35
11 -47 39 -75 100 -89 148 -36 36 39 48 23 18 -22 -38 -57 -84 -81 -143 -77
-99 8 -149 73 -148 193 0 77 14 113 62 158 52 50 127 56 183 16z m417 19 c7
-7 12 -26 12 -43 0 -53 -41 -72 -87 -40 -19 13 -23 13 -45 -4 -21 -18 -23 -28
-26 -135 l-4 -116 28 -10 c46 -18 10 -30 -88 -30 -88 0 -115 10 -78 30 19 10
20 20 20 160 0 139 -1 150 -20 160 -40 21 -21 31 58 28 76 -3 77 -3 80 -31 l3
-28 40 35 c41 37 84 47 107 24z m637 -163 c6 -159 9 -175 26 -180 39 -13 6
-25 -67 -25 -59 0 -74 3 -74 15 0 19 -3 19 -42 -5 -39 -24 -78 -25 -117 -6
-42 22 -51 54 -51 191 0 112 -2 127 -20 145 -11 11 -20 22 -20 25 0 3 34 5 75
5 l75 0 1 -82 c1 -46 4 -117 8 -158 5 -65 9 -75 26 -78 12 -2 31 8 44 22 22
23 23 30 19 141 -3 110 -4 117 -28 135 l-25 19 45 4 c25 2 61 4 81 5 l37 2 7
-175z m-435 -4 c0 -161 1 -170 20 -176 46 -15 14 -25 -80 -25 -94 0 -126 10
-80 25 19 6 20 15 20 156 0 138 -1 150 -20 161 -35 22 -22 28 60 28 l80 0 0
-169z m-1395 -12 c7 -156 9 -172 26 -176 42 -11 14 -20 -73 -26 -51 -3 -100
-1 -108 4 -9 5 -10 9 -3 9 6 0 19 7 27 16 23 23 23 285 0 308 -8 9 -20 16 -25
16 -5 0 -9 5 -9 10 0 6 33 10 79 10 l79 0 7 -171z"/>
<path d="M1307 1072 c-14 -15 -17 -41 -17 -135 0 -104 2 -119 20 -137 25 -25
45 -25 69 -1 38 38 42 231 6 271 -23 25 -57 26 -78 2z"/>
</g>
</svg>
